<?xml version="1.0"?>
<svg xmlns="http://www.w3.org/2000/svg" xmlns:xlink="http://www.w3.org/1999/xlink" id="Capa_1" data-name="Capa 1" viewBox="0 0 916.56 135">
  <defs>
    <style>.cls-1,.cls-10,.cls-11,.cls-12,.cls-13,.cls-14,.cls-15,.cls-16,.cls-17,.cls-18,.cls-19,.cls-2,.cls-20,.cls-21,.cls-22,.cls-23,.cls-24,.cls-25,.cls-26,.cls-27,.cls-28,.cls-29,.cls-3,.cls-30,.cls-31,.cls-32,.cls-33,.cls-34,.cls-35,.cls-36,.cls-37,.cls-38,.cls-39,.cls-4,.cls-40,.cls-41,.cls-42,.cls-43,.cls-5,.cls-6,.cls-7,.cls-8,.cls-9{fill:none;stroke-linecap:round;stroke-miterlimit:10;stroke-width:3px;}.cls-1{stroke:url(#Degradado_sin_nombre_19);}.cls-2{stroke:url(#Degradado_sin_nombre_19-2);}.cls-3{stroke:url(#Degradado_sin_nombre_19-3);}.cls-4{stroke:url(#Degradado_sin_nombre_19-4);}.cls-5{stroke:url(#Degradado_sin_nombre_19-5);}.cls-6{stroke:url(#Degradado_sin_nombre_19-6);}.cls-7{stroke:url(#Degradado_sin_nombre_19-7);}.cls-8{stroke:url(#Degradado_sin_nombre_19-8);}.cls-9{stroke:url(#Degradado_sin_nombre_19-9);}.cls-10{stroke:url(#Degradado_sin_nombre_19-10);}.cls-11{stroke:url(#Degradado_sin_nombre_19-11);}.cls-12{stroke:url(#Degradado_sin_nombre_19-12);}.cls-13{stroke:url(#Degradado_sin_nombre_19-13);}.cls-14{stroke:url(#Degradado_sin_nombre_19-14);}.cls-15{stroke:url(#Degradado_sin_nombre_19-15);}.cls-16{stroke:url(#Degradado_sin_nombre_19-16);}.cls-17{stroke:url(#Degradado_sin_nombre_19-17);}.cls-18{stroke:url(#Degradado_sin_nombre_19-18);}.cls-19{stroke:url(#Degradado_sin_nombre_19-19);}.cls-20{stroke:url(#Degradado_sin_nombre_19-20);}.cls-21{stroke:url(#Degradado_sin_nombre_19-21);}.cls-22{stroke:url(#Degradado_sin_nombre_19-22);}.cls-23{stroke:url(#Degradado_sin_nombre_19-23);}.cls-24{stroke:url(#Degradado_sin_nombre_19-24);}.cls-25{stroke:url(#Degradado_sin_nombre_19-25);}.cls-26{stroke:url(#Degradado_sin_nombre_19-26);}.cls-27{stroke:url(#Degradado_sin_nombre_19-27);}.cls-28{stroke:url(#Degradado_sin_nombre_19-28);}.cls-29{stroke:url(#Degradado_sin_nombre_19-29);}.cls-30{stroke:url(#Degradado_sin_nombre_19-30);}.cls-31{stroke:url(#Degradado_sin_nombre_19-31);}.cls-32{stroke:url(#Degradado_sin_nombre_19-32);}.cls-33{stroke:url(#Degradado_sin_nombre_19-33);}.cls-34{stroke:url(#Degradado_sin_nombre_19-34);}.cls-35{stroke:url(#Degradado_sin_nombre_19-35);}.cls-36{stroke:url(#Degradado_sin_nombre_19-36);}.cls-37{stroke:url(#Degradado_sin_nombre_19-37);}.cls-38{stroke:url(#Degradado_sin_nombre_19-38);}.cls-39{stroke:url(#Degradado_sin_nombre_19-39);}.cls-40{stroke:url(#Degradado_sin_nombre_19-40);}.cls-41{stroke:url(#Degradado_sin_nombre_19-41);}.cls-42{stroke:url(#Degradado_sin_nombre_19-42);}.cls-43{stroke:url(#Degradado_sin_nombre_19-43);}</style>
    <linearGradient id="Degradado_sin_nombre_19" x1="16.29" y1="77.09" x2="20.06" y2="77.32" gradientUnits="userSpaceOnUse">
      <stop offset="0" stop-color="#8953bb"/>
      <stop offset="0.49" stop-color="#ab7ed2"/>
      <stop offset="0.96" stop-color="#be94d8"/>
    </linearGradient>
    <linearGradient id="Degradado_sin_nombre_19-2" x1="115.92" y1="77.09" x2="119.69" y2="77.32" xlink:href="#Degradado_sin_nombre_19"/>
    <linearGradient id="Degradado_sin_nombre_19-3" x1="36.04" y1="77.03" x2="40.99" y2="77.33" xlink:href="#Degradado_sin_nombre_19"/>
    <linearGradient id="Degradado_sin_nombre_19-4" x1="95.64" y1="77.05" x2="100.59" y2="77.35" xlink:href="#Degradado_sin_nombre_19"/>
    <linearGradient id="Degradado_sin_nombre_19-5" x1="215.88" y1="77.34" x2="219.65" y2="77.57" xlink:href="#Degradado_sin_nombre_19"/>
    <linearGradient id="Degradado_sin_nombre_19-6" x1="192.68" y1="77.31" x2="197.63" y2="77.61" xlink:href="#Degradado_sin_nombre_19"/>
    <linearGradient id="Degradado_sin_nombre_19-7" x1="237.9" y1="77.55" x2="242.85" y2="77.85" xlink:href="#Degradado_sin_nombre_19"/>
    <linearGradient id="Degradado_sin_nombre_19-8" x1="156.13" y1="76.78" x2="161.08" y2="77.08" xlink:href="#Degradado_sin_nombre_19"/>
    <linearGradient id="Degradado_sin_nombre_19-9" x1="135.64" y1="76.96" x2="141.25" y2="77.3" xlink:href="#Degradado_sin_nombre_19"/>
    <linearGradient id="Degradado_sin_nombre_19-10" x1="175.27" y1="76.94" x2="181.77" y2="77.33" xlink:href="#Degradado_sin_nombre_19"/>
    <linearGradient id="Degradado_sin_nombre_19-11" x1="54.76" y1="76.72" x2="61.8" y2="77.15" xlink:href="#Degradado_sin_nombre_19"/>
    <linearGradient id="Degradado_sin_nombre_19-12" x1="73.82" y1="64.04" x2="83.07" y2="64.61" xlink:href="#Degradado_sin_nombre_19"/>
    <linearGradient id="Degradado_sin_nombre_19-13" x1="495.38" y1="77.59" x2="499.15" y2="77.82" gradientTransform="matrix(-1, 0, 0, 1, 1138.28, 0)" xlink:href="#Degradado_sin_nombre_19"/>
    <linearGradient id="Degradado_sin_nombre_19-14" x1="595.01" y1="77.59" x2="598.78" y2="77.82" gradientTransform="matrix(-1, 0, 0, 1, 1138.28, 0)" xlink:href="#Degradado_sin_nombre_19"/>
    <linearGradient id="Degradado_sin_nombre_19-15" x1="515.13" y1="77.53" x2="520.08" y2="77.83" gradientTransform="matrix(-1, 0, 0, 1, 1138.28, 0)" xlink:href="#Degradado_sin_nombre_19"/>
    <linearGradient id="Degradado_sin_nombre_19-16" x1="574.73" y1="77.55" x2="579.68" y2="77.85" gradientTransform="matrix(-1, 0, 0, 1, 1138.28, 0)" xlink:href="#Degradado_sin_nombre_19"/>
    <linearGradient id="Degradado_sin_nombre_19-17" x1="614.73" y1="77.46" x2="620.34" y2="77.8" gradientTransform="matrix(-1, 0, 0, 1, 1138.28, 0)" xlink:href="#Degradado_sin_nombre_19"/>
    <linearGradient id="Degradado_sin_nombre_19-18" x1="654.36" y1="77.44" x2="660.87" y2="77.83" gradientTransform="matrix(-1, 0, 0, 1, 1138.28, 0)" xlink:href="#Degradado_sin_nombre_19"/>
    <linearGradient id="Degradado_sin_nombre_19-19" x1="533.86" y1="77.22" x2="540.89" y2="77.65" gradientTransform="matrix(-1, 0, 0, 1, 1138.28, 0)" xlink:href="#Degradado_sin_nombre_19"/>
    <linearGradient id="Degradado_sin_nombre_19-20" x1="552.91" y1="64.61" x2="562.16" y2="65.18" gradientTransform="matrix(-1, 0, 0, 1, 1138.28, 0)" xlink:href="#Degradado_sin_nombre_19"/>
    <linearGradient id="Degradado_sin_nombre_19-21" x1="244.36" y1="77.02" x2="248.12" y2="77.25" gradientTransform="matrix(-1, 0, 0, 1, 1138.28, 0)" xlink:href="#Degradado_sin_nombre_19"/>
    <linearGradient id="Degradado_sin_nombre_19-22" x1="343.99" y1="77.02" x2="347.75" y2="77.25" gradientTransform="matrix(-1, 0, 0, 1, 1138.28, 0)" xlink:href="#Degradado_sin_nombre_19"/>
    <linearGradient id="Degradado_sin_nombre_19-23" x1="264.1" y1="76.96" x2="269.06" y2="77.26" gradientTransform="matrix(-1, 0, 0, 1, 1138.28, 0)" xlink:href="#Degradado_sin_nombre_19"/>
    <linearGradient id="Degradado_sin_nombre_19-24" x1="323.7" y1="76.98" x2="328.66" y2="77.28" gradientTransform="matrix(-1, 0, 0, 1, 1138.28, 0)" xlink:href="#Degradado_sin_nombre_19"/>
    <linearGradient id="Degradado_sin_nombre_19-25" x1="384.19" y1="76.71" x2="389.15" y2="77.01" gradientTransform="matrix(-1, 0, 0, 1, 1138.28, 0)" xlink:href="#Degradado_sin_nombre_19"/>
    <linearGradient id="Degradado_sin_nombre_19-26" x1="363.71" y1="76.89" x2="369.31" y2="77.23" gradientTransform="matrix(-1, 0, 0, 1, 1138.28, 0)" xlink:href="#Degradado_sin_nombre_19"/>
    <linearGradient id="Degradado_sin_nombre_19-27" x1="403.34" y1="76.87" x2="409.84" y2="77.26" gradientTransform="matrix(-1, 0, 0, 1, 1138.28, 0)" xlink:href="#Degradado_sin_nombre_19"/>
    <linearGradient id="Degradado_sin_nombre_19-28" x1="451.87" y1="76.71" x2="456.82" y2="77.01" gradientTransform="matrix(-1, 0, 0, 1, 1138.28, 0)" xlink:href="#Degradado_sin_nombre_19"/>
    <linearGradient id="Degradado_sin_nombre_19-29" x1="431.38" y1="76.89" x2="436.99" y2="77.23" gradientTransform="matrix(-1, 0, 0, 1, 1138.28, 0)" xlink:href="#Degradado_sin_nombre_19"/>
    <linearGradient id="Degradado_sin_nombre_19-30" x1="471.02" y1="76.87" x2="477.52" y2="77.26" gradientTransform="matrix(-1, 0, 0, 1, 1138.28, 0)" xlink:href="#Degradado_sin_nombre_19"/>
    <linearGradient id="Degradado_sin_nombre_19-31" x1="282.83" y1="76.65" x2="289.87" y2="77.08" gradientTransform="matrix(-1, 0, 0, 1, 1138.28, 0)" xlink:href="#Degradado_sin_nombre_19"/>
    <linearGradient id="Degradado_sin_nombre_19-32" x1="301.88" y1="64.04" x2="311.14" y2="64.61" gradientTransform="matrix(-1, 0, 0, 1, 1138.28, 0)" xlink:href="#Degradado_sin_nombre_19"/>
    <linearGradient id="Degradado_sin_nombre_19-33" x1="260" y1="77.02" x2="263.77" y2="77.25" xlink:href="#Degradado_sin_nombre_19"/>
    <linearGradient id="Degradado_sin_nombre_19-34" x1="450.47" y1="79.58" x2="455.76" y2="79.91" xlink:href="#Degradado_sin_nombre_19"/>
    <linearGradient id="Degradado_sin_nombre_19-35" x1="498.82" y1="76.86" x2="502.59" y2="77.08" xlink:href="#Degradado_sin_nombre_19"/>
    <linearGradient id="Degradado_sin_nombre_19-36" x1="363.65" y1="77.43" x2="367.42" y2="77.65" xlink:href="#Degradado_sin_nombre_19"/>
    <linearGradient id="Degradado_sin_nombre_19-37" x1="283.77" y1="77.36" x2="288.72" y2="77.66" xlink:href="#Degradado_sin_nombre_19"/>
    <linearGradient id="Degradado_sin_nombre_19-38" x1="343.37" y1="77.39" x2="348.32" y2="77.69" xlink:href="#Degradado_sin_nombre_19"/>
    <linearGradient id="Degradado_sin_nombre_19-39" x1="403.86" y1="77.12" x2="408.81" y2="77.42" xlink:href="#Degradado_sin_nombre_19"/>
    <linearGradient id="Degradado_sin_nombre_19-40" x1="383.37" y1="77.3" x2="388.98" y2="77.64" xlink:href="#Degradado_sin_nombre_19"/>
    <linearGradient id="Degradado_sin_nombre_19-41" x1="423" y1="77.27" x2="429.51" y2="77.67" xlink:href="#Degradado_sin_nombre_19"/>
    <linearGradient id="Degradado_sin_nombre_19-42" x1="302.5" y1="77.06" x2="309.53" y2="77.48" xlink:href="#Degradado_sin_nombre_19"/>
    <linearGradient id="Degradado_sin_nombre_19-43" x1="321.55" y1="64.43" x2="330.8" y2="64.99" xlink:href="#Degradado_sin_nombre_19"/>
  </defs>
  <line class="cls-1" x1="18.17" y1="70.81" x2="18.17" y2="83.6"/>
  <line class="cls-2" x1="117.8" y1="70.81" x2="117.8" y2="83.6"/>
  <line class="cls-3" x1="38.51" y1="61" x2="38.51" y2="93.35"/>
  <line class="cls-4" x1="98.11" y1="61.03" x2="98.11" y2="93.37"/>
  <line class="cls-5" x1="217.76" y1="71.06" x2="217.76" y2="83.85"/>
  <line class="cls-6" x1="195.15" y1="61.29" x2="195.15" y2="93.63"/>
  <line class="cls-7" x1="240.37" y1="61.53" x2="240.37" y2="93.88"/>
  <line class="cls-8" x1="158.6" y1="60.76" x2="158.6" y2="93.1"/>
  <line class="cls-9" x1="138.44" y1="55.54" x2="138.44" y2="98.73"/>
  <line class="cls-10" x1="178.52" y1="48.13" x2="178.52" y2="106.14"/>
  <line class="cls-11" x1="58.28" y1="43.53" x2="58.28" y2="110.33"/>
  <line class="cls-12" x1="78.44" y1="12.62" x2="78.44" y2="116.03"/>
  <line class="cls-13" x1="641.01" y1="71.31" x2="641.01" y2="84.1"/>
  <line class="cls-14" x1="541.38" y1="71.31" x2="541.38" y2="84.1"/>
  <line class="cls-15" x1="620.67" y1="61.51" x2="620.67" y2="93.85"/>
  <line class="cls-16" x1="561.07" y1="61.53" x2="561.07" y2="93.88"/>
  <line class="cls-17" x1="520.74" y1="56.04" x2="520.74" y2="99.23"/>
  <line class="cls-18" x1="480.66" y1="48.63" x2="480.66" y2="106.64"/>
  <line class="cls-19" x1="600.9" y1="44.03" x2="600.9" y2="110.83"/>
  <line class="cls-20" x1="580.74" y1="13.19" x2="580.74" y2="116.6"/>
  <line class="cls-21" x1="892.04" y1="70.74" x2="892.04" y2="83.53"/>
  <line class="cls-22" x1="792.41" y1="70.74" x2="792.41" y2="83.53"/>
  <line class="cls-23" x1="871.7" y1="60.93" x2="871.7" y2="93.28"/>
  <line class="cls-24" x1="812.1" y1="60.96" x2="812.1" y2="93.3"/>
  <line class="cls-25" x1="751.61" y1="60.69" x2="751.61" y2="93.03"/>
  <line class="cls-26" x1="771.77" y1="55.47" x2="771.77" y2="98.66"/>
  <line class="cls-27" x1="731.69" y1="48.06" x2="731.69" y2="106.07"/>
  <line class="cls-28" x1="683.93" y1="60.69" x2="683.93" y2="93.03"/>
  <line class="cls-29" x1="704.09" y1="55.47" x2="704.09" y2="98.66"/>
  <line class="cls-30" x1="664.01" y1="48.06" x2="664.01" y2="106.07"/>
  <line class="cls-31" x1="851.93" y1="43.46" x2="851.93" y2="110.26"/>
  <line class="cls-32" x1="831.77" y1="12.62" x2="831.77" y2="116.03"/>
  <line class="cls-33" x1="261.89" y1="70.74" x2="261.89" y2="83.53"/>
  <line class="cls-34" x1="453.12" y1="60.76" x2="453.12" y2="98.73"/>
  <line class="cls-35" x1="500.7" y1="70.57" x2="500.7" y2="83.37"/>
  <line class="cls-36" x1="365.53" y1="71.15" x2="365.53" y2="83.94"/>
  <line class="cls-37" x1="286.24" y1="61.34" x2="286.24" y2="93.69"/>
  <line class="cls-38" x1="345.84" y1="61.37" x2="345.84" y2="93.71"/>
  <line class="cls-39" x1="406.33" y1="61.1" x2="406.33" y2="93.44"/>
  <line class="cls-40" x1="386.17" y1="55.87" x2="386.17" y2="99.07"/>
  <line class="cls-41" x1="426.25" y1="48.46" x2="426.25" y2="106.48"/>
  <line class="cls-42" x1="306.01" y1="43.87" x2="306.01" y2="110.67"/>
  <line class="cls-43" x1="326.17" y1="13" x2="326.17" y2="116.41"/>
</svg>
