<?xml version="1.0"?>
<svg xmlns="http://www.w3.org/2000/svg" xmlns:xlink="http://www.w3.org/1999/xlink" id="Capa_1" data-name="Capa 1" viewBox="0 0 613.69 596.16">
  <defs>
    <style>.cls-1{fill:url(#Degradado_sin_nombre_19);}</style>
    <linearGradient id="Degradado_sin_nombre_19" x1="67.59" y1="284.9" x2="574.88" y2="328.57" gradientUnits="userSpaceOnUse">
      <stop offset="0" stop-color="#8953bb"/>
      <stop offset="0.49" stop-color="#ab7ed2"/>
      <stop offset="0.96" stop-color="#be94d8"/>
    </linearGradient>
  </defs>
  <path class="cls-1" d="M511.75,375.7a9.32,9.32,0,0,0-10.27-2.15c-101.14,41.87-217.08-6.18-259-107.33a198.24,198.24,0,0,1,3.53-159.66A9.33,9.33,0,0,0,234,94C123.14,139.51,70.17,266.33,115.72,377.22S288.09,541.08,399,495.53A217.06,217.06,0,0,0,513.43,386.05,9.32,9.32,0,0,0,511.75,375.7ZM316.61,493.28c-109.62,0-198.47-88.9-198.45-198.53A198.48,198.48,0,0,1,220,121.4,213.86,213.86,0,0,0,208.83,190c0,119.93,97.23,217.15,217.17,217.15a217.55,217.55,0,0,0,59.43-8.3A199.23,199.23,0,0,1,316.61,493.28Z"/>
</svg>
